<svg xmlns="http://www.w3.org/2000/svg" viewBox="0 0 240 240"><defs><style>.a{fill:#f90;}.b{fill:#fff;}.c{fill:#ffc266;}</style></defs><title>maintenance</title><rect class="a" y="-0.09" width="240" height="240"/><path class="b" d="M170.56,171h-9.79l-29-111.66A4.46,4.46,0,0,0,127.42,56H112.58a4.46,4.46,0,0,0-4.31,3.34L79.23,171H69.44A4.44,4.44,0,0,0,65,175.44v4.12A4.44,4.44,0,0,0,69.44,184H170.56a4.44,4.44,0,0,0,4.44-4.44v-4.12A4.44,4.44,0,0,0,170.56,171Z"/><path class="a" d="M134.84,88l-7.25-27.89-.14-.11h-14.9l-.14.11L105.16,88Z"/><polygon class="c" points="135.09 93 104.91 93 102.57 102 137.43 102 135.09 93"/><polygon class="a" points="146.85 134 139.57 106 100.43 106 93.15 134 146.85 134"/><polygon class="c" points="93.57 138 91.23 147 148.77 147 146.43 138 93.57 138"/><polygon class="a" points="156.92 171 151.98 152 88.02 152 83.08 171 156.92 171"/><path class="c" d="M169.86,175H69.14a.14.14,0,0,0-.14.14v4.71a.14.14,0,0,0,.14.14H169.86a.15.15,0,0,0,.14-.15h0v-4.71A.14.14,0,0,0,169.86,175Z"/></svg>