<svg xmlns="http://www.w3.org/2000/svg" viewBox="0 0 240 240"><defs><style>.a{fill:#f90;}.b{fill:#fff;}.c{fill:#ffc266;}</style></defs><title>clone</title><rect class="a" y="-0.09" width="240" height="240"/><path class="b" d="M169.82,82.5H168A7.82,7.82,0,0,0,156.47,77a10.12,10.12,0,0,0-14.56,1.09,10.11,10.11,0,0,0-5.28-.7,10.13,10.13,0,0,0-13.2-.24A15.63,15.63,0,0,0,106.21,76a10.13,10.13,0,0,0-14.88,3,15.63,15.63,0,0,0-17.87,5.17A7,7,0,0,0,70.53,84a6,6,0,0,0-7.82-.07,7,7,0,0,0-.5,13.94l0,.23a15.62,15.62,0,0,0-1.59,21.14A15.64,15.64,0,0,0,73,139.53c.58.49,1.18,1,1.8,1.41v2.15a11.13,11.13,0,0,0,5.94,9.84V164a2,2,0,0,0,2,2H89a2,2,0,0,0,2-2V152.93l.54-.31.54.3V164a2,2,0,0,0,2,2h6.31a2,2,0,0,0,2-2V152.93a11.1,11.1,0,0,0,3.87-3.37,16.63,16.63,0,0,0,15-.65,11.09,11.09,0,0,0,4.29,4V164a2,2,0,0,0,2,2h6.31a2,2,0,0,0,2-2V152.94l.56-.31.53.29V164a2,2,0,0,0,2,2h6.31a2,2,0,0,0,2-2V152.93a11.13,11.13,0,0,0,5.94-9.84v-.44a15.64,15.64,0,0,0,8.39-13.84c0-.49,0-1-.07-1.49a10.12,10.12,0,0,0,.7-14.27c0-.73-.1-1.46-.18-2.19h7.51a14.18,14.18,0,1,0,0-28.36Z"/><path class="c" d="M97.33,150.16a7,7,0,0,1-2.5-.46,11.06,11.06,0,0,0,1.17-2,10.12,10.12,0,0,0,5.12-.59h1.42l.37.3A7.05,7.05,0,0,1,97.33,150.16Z"/><path class="a" d="M87,162H84.76v-7.84a11.14,11.14,0,0,0,1.13.06c.38,0,.76,0,1.13-.06V162Z"/><path class="a" d="M98.46,162H96.2v-7.84a11.08,11.08,0,0,0,1.13.06,11.25,11.25,0,0,0,1.13-.06V162Z"/><path class="a" d="M132,162h-2.26v-7.84a11.25,11.25,0,0,0,1.13.06c.38,0,.76,0,1.13-.06V162Z"/><path class="a" d="M143.47,162h-2.26v-7.84a10.88,10.88,0,0,0,2.26,0V162Z"/><path class="c" d="M142.34,150.16a7,7,0,0,1-2.49-.45,11.06,11.06,0,0,0,2-4.81q.84-.33,1.65-.7a15.61,15.61,0,0,0,5.81-.07A7.08,7.08,0,0,1,142.34,150.16Z"/><path class="c" d="M158.46,124.8a2,2,0,0,0-.83,2,11.57,11.57,0,0,1-13.92,13.29,2,2,0,0,0-1.32.15,28.29,28.29,0,0,1-3.06,1.26,2,2,0,0,0-1.36,1.84,7.07,7.07,0,0,1-13.78,1.94,2,2,0,0,0-3.18-1,12.56,12.56,0,0,1-16.31-.71,2,2,0,0,0-1.38-.54h-2.59a2,2,0,0,0-.82.17,6.08,6.08,0,0,1-4.51.16,2,2,0,0,0-2.65,1.41,7.07,7.07,0,0,1-13.93-1.74v-3.21a2,2,0,0,0-.89-1.68,28.72,28.72,0,0,1-2.77-2.13,2,2,0,0,0-1.09-.48,11.58,11.58,0,0,1-9.28-16,2,2,0,0,0-.39-2.18,11.57,11.57,0,0,1,1.06-16.82,2,2,0,0,0,.73-1.53,6,6,0,0,1,.68-2.72,2,2,0,0,0-2.65-2.77,2.88,2.88,0,0,1-1.22.27,2.94,2.94,0,0,1,0-5.89l.31,0a2,2,0,0,0,1.79-.73,1.93,1.93,0,0,1,3.08.14,2,2,0,0,0,2.37.76,2.91,2.91,0,0,1,2.57.27,2,2,0,0,0,2.82-.68,11.58,11.58,0,0,1,15.45-4.27,2,2,0,0,0,2.9-1.18,6.07,6.07,0,0,1,10.24-2.33,2,2,0,0,0,2.67.26,11.56,11.56,0,0,1,14.91,1.15,2,2,0,0,0,3-.18,6.07,6.07,0,0,1,9.31-.26,2,2,0,0,0,2,.62,6.14,6.14,0,0,1,1.53-.19,6.07,6.07,0,0,1,2,.34,10.17,10.17,0,0,0-.41,2.85,2,2,0,1,0,4.05,0,6,6,0,0,1,.71-2.85,6.08,6.08,0,0,1,10.25-.76,2,2,0,0,0,3.06.22,3.76,3.76,0,0,1,6.4,3.07s0,.08,0,.12a3.77,3.77,0,0,1-3.73,3.23,3.72,3.72,0,0,1-2.27-.77,2,2,0,0,0-3,.64,6.08,6.08,0,0,1-1.44,1.75,2,2,0,0,0-.4,2.66,11.53,11.53,0,0,1,1.86,6.28,11.67,11.67,0,0,1-.14,1.81,11.5,11.5,0,0,1-1.12,3.44,2,2,0,0,0,.55,2.51,3.74,3.74,0,0,1,1.43,2.95,2,2,0,0,0,2,2h.41a28.8,28.8,0,0,1,.24,3.09,2,2,0,0,0,.64,1.44,6,6,0,0,1,1.93,4.44A6.09,6.09,0,0,1,158.46,124.8Z"/><path class="a" d="M169.82,106.8H159.57a7.75,7.75,0,0,0-1.54-3,15.53,15.53,0,0,0,.89-3.27,15.64,15.64,0,0,0-1.49-9.49h0a7.74,7.74,0,0,0,2.87.55,7.83,7.83,0,0,0,7.31-5.06h2.19a10.13,10.13,0,0,1,0,20.25Z"/><path class="b" d="M164.23,92.12a1.52,1.52,0,1,0,1.52,1.52A1.52,1.52,0,0,0,164.23,92.12Z"/><path class="b" d="M148.7,93.48a2,2,0,0,0-2,2V102a2,2,0,1,0,4.05,0V95.51A2,2,0,0,0,148.7,93.48Z"/></svg>