<svg xmlns="http://www.w3.org/2000/svg" viewBox="0 0 240 240"><defs><style>.a{fill:#f90;}.b{fill:#fff;}.c{fill:#ffc266;}</style></defs><title>cookies</title><rect class="a" y="-0.09" width="240" height="240"/><path class="b" d="M159.24,76V71.5h1.52a1.87,1.87,0,0,0,1.88-1.87V57.88A1.87,1.87,0,0,0,160.76,56H79.24a1.87,1.87,0,0,0-1.87,1.88V69.62a1.87,1.87,0,0,0,1.88,1.88h1.52V76A13.4,13.4,0,0,0,70.13,89.11V135.5h0v27.93a13.4,13.4,0,0,0,9.33,12.75v5.12a2.7,2.7,0,0,0,2.7,2.7h75.69a2.7,2.7,0,0,0,2.7-2.7v-5.12a13.4,13.4,0,0,0,9.33-12.75V89.11A13.4,13.4,0,0,0,159.24,76Z"/><polygon class="c" points="96.51 75.73 84.51 75.73 84.51 71.5 155.49 71.5 155.49 75.73 106.97 75.73 96.51 75.73"/><polygon class="a" points="154.75 59.75 154.75 67.75 157.37 67.75 158.88 67.75 158.88 59.75 154.75 59.75"/><rect class="a" x="147.44" y="59.75" width="3.55" height="8"/><rect class="a" x="140.14" y="59.75" width="3.55" height="8"/><rect class="a" x="132.83" y="59.75" width="3.55" height="8"/><rect class="a" x="125.53" y="59.75" width="3.55" height="8"/><rect class="a" x="118.22" y="59.75" width="3.55" height="8"/><rect class="a" x="110.92" y="59.75" width="3.55" height="8"/><rect class="a" x="103.61" y="59.75" width="3.55" height="8"/><rect class="a" x="96.31" y="59.75" width="3.55" height="8"/><rect class="a" x="89" y="59.75" width="3.55" height="8"/><polygon class="a" points="81.12 67.75 82.63 67.75 85.25 67.75 85.25 59.75 81.12 59.75 81.12 67.75"/><path class="c" d="M166.13,105.35v58.08a9.64,9.64,0,0,1-9.63,9.63h-7.64a21.5,21.5,0,0,0-4.76-38q.09-.78.13-1.55a21.5,21.5,0,1,0-43-2.14,21.8,21.8,0,0,0,0,2.45,21.49,21.49,0,0,0-10.55,39.2H83.5a9.64,9.64,0,0,1-9.63-9.63v-38.2h0V89.11a9.64,9.64,0,0,1,9.63-9.63h73a9.64,9.64,0,0,1,9.63,9.63v16.25Z"/><path class="b" d="M82.46,87.23a1.87,1.87,0,0,0-1.87,1.87V135.5a1.87,1.87,0,0,0,3.75,0V89.11A1.87,1.87,0,0,0,82.46,87.23Z"/><path class="a" d="M154.5,155.3A17.75,17.75,0,0,1,122,165.16a21.43,21.43,0,0,0,0-19.71,17.75,17.75,0,0,1,32.52,9.86Z"/><path class="c" d="M124.64,173.06H115a21.69,21.69,0,0,0,4.81-4.51A21.58,21.58,0,0,0,124.64,173.06Z"/><path class="a" d="M105,131.59a17.75,17.75,0,1,1,35.47,1.76c0,.25,0,.5-.06.76a21.51,21.51,0,0,0-20.64,7.95,21.49,21.49,0,0,0-14.73-8.15A18,18,0,0,1,105,131.59Z"/><path class="a" d="M85.12,155.3a17.76,17.76,0,1,1,17.76,17.75A17.78,17.78,0,0,1,85.12,155.3Z"/><polygon class="c" points="156.79 180.25 83.21 180.25 83.21 176.81 83.5 176.81 156.5 176.81 156.79 176.81 156.79 180.25"/><circle class="b" cx="123.15" cy="121.52" r="1.88"/><circle class="b" cx="122.95" cy="132.94" r="1.88"/><circle class="b" cx="129.27" cy="128.5" r="1.88"/><circle class="b" cx="115.01" cy="128.81" r="1.88"/><circle class="b" cx="133.96" cy="146.68" r="1.88"/><circle class="b" cx="142.76" cy="161.75" r="1.88"/><circle class="b" cx="131.14" cy="159.84" r="1.88"/><circle class="b" cx="142.76" cy="151.86" r="1.88"/><circle class="b" cx="100.04" cy="142.93" r="1.88"/><circle class="b" cx="93.99" cy="151.86" r="1.88"/><circle class="b" cx="106.55" cy="149.99" r="1.88"/><circle class="b" cx="101.92" cy="161.97" r="1.88"/></svg>