<svg id="Layer_1" data-name="Layer 1" xmlns="http://www.w3.org/2000/svg" viewBox="0 0 128 128"><defs><style>.cls-1{fill:#f90;}.cls-2{fill:#fff;}.cls-3{fill:#ffc266;}</style></defs><title>cookies_icon</title><path class="cls-1" d="M103.24,20V15.5h1.52a1.87,1.87,0,0,0,1.88-1.87V1.88A1.87,1.87,0,0,0,104.76,0H23.24a1.87,1.87,0,0,0-1.87,1.88V13.62a1.87,1.87,0,0,0,1.88,1.88h1.52V20A13.4,13.4,0,0,0,14.13,33.11V79.5h0v27.93a13.4,13.4,0,0,0,9.33,12.75v5.12a2.7,2.7,0,0,0,2.7,2.7h75.69a2.7,2.7,0,0,0,2.7-2.7v-5.12a13.4,13.4,0,0,0,9.33-12.75V33.11A13.4,13.4,0,0,0,103.24,20Z"/><polygon class="cls-2" points="40.51 19.73 28.51 19.73 28.51 15.5 99.49 15.5 99.49 19.73 50.97 19.73 40.51 19.73"/><polygon class="cls-3" points="98.75 3.75 98.75 11.75 101.37 11.75 102.88 11.75 102.88 3.75 98.75 3.75"/><rect class="cls-3" x="91.44" y="3.75" width="3.55" height="8"/><rect class="cls-3" x="84.14" y="3.75" width="3.55" height="8"/><rect class="cls-3" x="76.83" y="3.75" width="3.55" height="8"/><rect class="cls-3" x="69.53" y="3.75" width="3.55" height="8"/><rect class="cls-3" x="62.22" y="3.75" width="3.55" height="8"/><rect class="cls-3" x="54.92" y="3.75" width="3.55" height="8"/><rect class="cls-3" x="47.61" y="3.75" width="3.55" height="8"/><rect class="cls-3" x="40.31" y="3.75" width="3.55" height="8"/><rect class="cls-3" x="33" y="3.75" width="3.55" height="8"/><polygon class="cls-3" points="25.12 11.75 26.63 11.75 29.25 11.75 29.25 3.75 25.12 3.75 25.12 11.75"/><path class="cls-2" d="M110.13,49.35v58.08a9.64,9.64,0,0,1-9.63,9.63H92.86a21.5,21.5,0,0,0-4.76-38q.09-.78.13-1.55a21.5,21.5,0,1,0-43-2.14,21.8,21.8,0,0,0,0,2.45,21.49,21.49,0,0,0-10.55,39.2H27.5a9.64,9.64,0,0,1-9.63-9.63V69.23h0V33.11a9.64,9.64,0,0,1,9.63-9.63h73a9.64,9.64,0,0,1,9.63,9.63V49.35Z"/><path class="cls-1" d="M26.46,31.23a1.87,1.87,0,0,0-1.87,1.87V79.5a1.88,1.88,0,0,0,3.75,0V33.11A1.87,1.87,0,0,0,26.46,31.23Z"/><path class="cls-3" d="M98.5,99.3A17.75,17.75,0,0,1,66,109.16a21.43,21.43,0,0,0,0-19.71A17.75,17.75,0,0,1,98.5,99.3Z"/><path class="cls-2" d="M68.64,117.06H59a21.69,21.69,0,0,0,4.81-4.51A21.58,21.58,0,0,0,68.64,117.06Z"/><path class="cls-3" d="M49,75.59a17.75,17.75,0,1,1,35.47,1.76c0,.25,0,.5-.06.76A21.51,21.51,0,0,0,63.8,86.06a21.49,21.49,0,0,0-14.73-8.15A18,18,0,0,1,49,75.59Z"/><path class="cls-3" d="M29.12,99.3a17.76,17.76,0,1,1,17.76,17.75A17.78,17.78,0,0,1,29.12,99.3Z"/><polygon class="cls-2" points="100.79 124.25 27.21 124.25 27.21 120.81 27.5 120.81 100.5 120.81 100.79 120.81 100.79 124.25"/><circle class="cls-1" cx="67.15" cy="65.52" r="1.88"/><circle class="cls-1" cx="66.95" cy="76.94" r="1.88"/><circle class="cls-1" cx="73.27" cy="72.5" r="1.88"/><circle class="cls-1" cx="59.01" cy="72.81" r="1.88"/><circle class="cls-1" cx="77.96" cy="90.68" r="1.88"/><circle class="cls-1" cx="86.76" cy="105.75" r="1.88"/><circle class="cls-1" cx="75.14" cy="103.84" r="1.88"/><circle class="cls-1" cx="86.76" cy="95.86" r="1.88"/><circle class="cls-1" cx="44.04" cy="86.93" r="1.88"/><circle class="cls-1" cx="37.99" cy="95.86" r="1.88"/><circle class="cls-1" cx="50.55" cy="93.99" r="1.88"/><circle class="cls-1" cx="45.92" cy="105.97" r="1.88"/></svg>