<svg id="Layer_1" data-name="Layer 1" xmlns="http://www.w3.org/2000/svg" viewBox="0 0 240 240"><defs><style>.cls-1{fill:#f90;}.cls-2{fill:#fff;}</style></defs><rect class="cls-1" width="240" height="240"/><path class="cls-2" d="M67.88,81.9H172.07A11.93,11.93,0,0,1,184,93.83v39.78a11.93,11.93,0,0,1-11.93,11.93H134.7l5.13,12.56-22.55-12.56H67.93A11.93,11.93,0,0,1,56,133.61V93.83A11.89,11.89,0,0,1,67.88,81.9Z"/><path class="cls-1" d="M63.29,92.78a4.17,4.17,0,0,1,3.28-1.61q4-.32,4.52,3.74,2.43,16.32,5.26,27.63l11.39-21.7q1.58-3,3.91-3.12c2.29-.15,3.69,1.3,4.26,4.37a97.06,97.06,0,0,0,5,17.8c1.35-13.22,3.64-22.74,6.86-28.62A4,4,0,0,1,111.16,89a4.54,4.54,0,0,1,3.28,1,4.06,4.06,0,0,1,1.61,3,4.49,4.49,0,0,1-.52,2.49c-2,3.75-3.69,10-5,18.79-1.3,8.48-1.77,15.09-1.45,19.82a6.24,6.24,0,0,1-.63,3.44,3.34,3.34,0,0,1-2.76,1.87,5.25,5.25,0,0,1-4.11-1.93q-7.26-7.41-11.5-22.16-5.07,10-7.49,15c-3.07,5.88-5.67,8.9-7.86,9.06-1.4.1-2.6-1.1-3.64-3.59q-4-10.23-8.58-39.5A4.41,4.41,0,0,1,63.29,92.78ZM175.11,101a12,12,0,0,0-8.33-6A13.49,13.49,0,0,0,164,94.6c-5,0-9.05,2.6-12.23,7.8a27.65,27.65,0,0,0-4.05,14.68,20.2,20.2,0,0,0,2.49,10.3,12,12,0,0,0,8.33,6,14.2,14.2,0,0,0,2.81.31c5.05,0,9.1-2.6,12.23-7.81a27.89,27.89,0,0,0,4-14.72A19.17,19.17,0,0,0,175.11,101Zm-6.56,14.41c-.73,3.43-2,6-4,7.7-1.51,1.35-2.92,1.93-4.22,1.67s-2.29-1.36-3.07-3.39a13.25,13.25,0,0,1-.93-4.73,18.15,18.15,0,0,1,.36-3.8,16.81,16.81,0,0,1,2.76-6.19c1.71-2.55,3.54-3.59,5.41-3.23,1.25.26,2.29,1.36,3.07,3.39a13.27,13.27,0,0,1,.94,4.73A18.3,18.3,0,0,1,168.55,115.36Zm-26-14.41a12.08,12.08,0,0,0-8.32-6,13.57,13.57,0,0,0-2.81-.31c-5,0-9.05,2.6-12.23,7.8a27.66,27.66,0,0,0-4.06,14.68,20.2,20.2,0,0,0,2.5,10.3,12,12,0,0,0,8.33,6,14.12,14.12,0,0,0,2.81.31c5,0,9.1-2.6,12.22-7.81A27.81,27.81,0,0,0,145,111.2,19.64,19.64,0,0,0,142.53,101Zm-6.6,14.41c-.73,3.43-2,6-4,7.7-1.51,1.35-2.91,1.93-4.21,1.67s-2.29-1.36-3.07-3.39a13.05,13.05,0,0,1-.94-4.73,17.5,17.5,0,0,1,.37-3.8,16.78,16.78,0,0,1,2.75-6.19c1.72-2.55,3.54-3.59,5.41-3.23,1.25.26,2.29,1.36,3.07,3.39a13.05,13.05,0,0,1,.94,4.73,15.5,15.5,0,0,1-.36,3.85Z"/></svg>