<svg id="Layer_1" data-name="Layer 1" xmlns="http://www.w3.org/2000/svg" viewBox="0 0 128 128"><defs><style>.cls-1{fill:#f90;}.cls-2{fill:#fff;}</style></defs><path class="cls-1" d="M11.88,25.9H116.07A11.93,11.93,0,0,1,128,37.83V77.61a11.93,11.93,0,0,1-11.93,11.93H78.7l5.13,12.56L61.28,89.54H11.93A11.93,11.93,0,0,1,0,77.61V37.83A11.89,11.89,0,0,1,11.88,25.9Z"/><path class="cls-2" d="M7.29,36.78a4.17,4.17,0,0,1,3.28-1.61q4-.31,4.52,3.74,2.43,16.32,5.26,27.63l11.39-21.7q1.57-3,3.91-3.12c2.29-.15,3.69,1.3,4.26,4.37a97.06,97.06,0,0,0,5,17.8c1.35-13.22,3.64-22.74,6.86-28.62A4,4,0,0,1,55.16,33a4.54,4.54,0,0,1,3.28,1,4.06,4.06,0,0,1,1.61,3,4.49,4.49,0,0,1-.52,2.49c-2,3.75-3.69,10.05-5.05,18.79-1.3,8.48-1.77,15.09-1.45,19.82a6.24,6.24,0,0,1-.63,3.44,3.34,3.34,0,0,1-2.76,1.87,5.25,5.25,0,0,1-4.11-1.93Q38.27,74.06,34,59.31q-5.07,10-7.49,15c-3.07,5.88-5.67,8.9-7.86,9.06-1.4.1-2.6-1.1-3.64-3.59q-4-10.23-8.58-39.5A4.41,4.41,0,0,1,7.29,36.78ZM119.11,45a12,12,0,0,0-8.33-6A13.49,13.49,0,0,0,108,38.6c-5,0-9,2.6-12.23,7.8a27.65,27.65,0,0,0-4,14.68,20.2,20.2,0,0,0,2.49,10.3,12,12,0,0,0,8.33,6,14.2,14.2,0,0,0,2.81.31c5.05,0,9.1-2.6,12.23-7.81a27.89,27.89,0,0,0,4-14.72A19.17,19.17,0,0,0,119.11,45Zm-6.56,14.41c-.73,3.43-2,6-4,7.7-1.51,1.35-2.92,1.93-4.22,1.67s-2.29-1.36-3.07-3.39a13.25,13.25,0,0,1-.93-4.73,18.15,18.15,0,0,1,.36-3.8,16.81,16.81,0,0,1,2.76-6.19c1.71-2.55,3.54-3.59,5.41-3.23,1.25.26,2.29,1.36,3.07,3.39a13.27,13.27,0,0,1,.94,4.73A18.3,18.3,0,0,1,112.55,59.36ZM86.53,45a12.08,12.08,0,0,0-8.32-6,13.57,13.57,0,0,0-2.81-.31c-5,0-9.05,2.6-12.23,7.8a27.66,27.66,0,0,0-4.06,14.68,20.2,20.2,0,0,0,2.5,10.3,12,12,0,0,0,8.33,6,14.12,14.12,0,0,0,2.81.31c5,0,9.1-2.6,12.22-7.81A27.81,27.81,0,0,0,89,55.2,19.64,19.64,0,0,0,86.53,45Zm-6.6,14.41c-.73,3.43-2,6-4,7.7-1.51,1.35-2.91,1.93-4.21,1.67s-2.29-1.36-3.07-3.39a13.05,13.05,0,0,1-.94-4.73,17.5,17.5,0,0,1,.37-3.8,16.78,16.78,0,0,1,2.75-6.19c1.72-2.55,3.54-3.59,5.41-3.23,1.25.26,2.29,1.36,3.07,3.39a13.05,13.05,0,0,1,.94,4.73,15.5,15.5,0,0,1-.36,3.85Z"/></svg>