<svg id="Layer_1" data-name="Layer 1" xmlns="http://www.w3.org/2000/svg" viewBox="0 0 240 240"><title>importexport</title><rect y="-0.1" width="240" height="240" fill="#f90"/><path d="M170,113.7l-3.3-13.3a2,2,0,0,0,1.6-2V96.4a8.4,8.4,0,0,0-8.4-8.4H144.8V83.6a4.1,4.1,0,0,0-4.1-4.1h-77a4.1,4.1,0,0,0-4.1,4.1V135H53a2,2,0,1,0,0,4h6.5v4.4a4.1,4.1,0,0,0,4.1,4.1H74.5a12.7,12.7,0,1,0,25.4,0h45.2a12.7,12.7,0,1,0,25.4,0H177a2,2,0,0,0,2-2V124.2A10.6,10.6,0,0,0,170,113.7Z" fill="#fff"/><path d="M140.8,143.6H99.2a12.7,12.7,0,0,0-24,0H63.6V139h2.7a2,2,0,1,0,0-4H63.6V83.6h77.2v44.9h0Z" fill="#ffc266"/><path d="M175,142.9v.7h-5.2a12.7,12.7,0,0,0-24,0h-1V131.9h0V117.6h23.7a6.6,6.6,0,0,1,6.2,4.5h-6.2a2,2,0,0,0-2,2v4.3a6.3,6.3,0,0,0,6.3,6.3H175v8.2Z" fill="#ffc266"/><path d="M175,130.7h-2.3a2.3,2.3,0,0,1-2.3-2.3v-2.3H175Z" fill="#f90"/><path d="M144.8,92h15.1a4.4,4.4,0,0,1,4.4,4.4H144.8Z" fill="#ffc266"/><polygon points="144.8 100.5 162.6 100.5 165.9 113.6 144.8 113.6 144.8 100.5" fill="#f90"/><circle cx="87.2" cy="147.7" r="8.7" fill="#f90"/><circle cx="157.8" cy="147.7" r="8.7" fill="#f90"/><path d="M88.9,118.7a6,6,0,0,1-4.2-1.8l-9.1-9.1a6,6,0,0,1,0-8.5l9.1-9.1A6,6,0,0,1,94,97.6h13a6,6,0,0,1,0,12H94a6,6,0,0,1-5.1,9.1Z" fill="#fff"/><path d="M107.1,101.6H84.6l5.7-5.7A2,2,0,0,0,87.5,93l-9.1,9.1a2,2,0,0,0,0,2.8l9.1,9.1a2,2,0,0,0,2.8-2.8l-5.7-5.7h22.5a2,2,0,0,0,0-4Z" fill="#f90"/><path d="M119.9,138.7a6,6,0,0,0,4.2-1.8l9.1-9.1a6,6,0,0,0,0-8.5l-9.1-9.1a6,6,0,0,0-9.4,7.4h-13a6,6,0,0,0,0,12h13a6,6,0,0,0,5.1,9.1Z" fill="#fff"/><path d="M101.8,121.6h22.5l-5.7-5.7a2,2,0,0,1,2.8-2.8l9.1,9.1a2,2,0,0,1,0,2.8l-9.1,9.1a2,2,0,0,1-2.8-2.8l5.7-5.7H101.8a2,2,0,0,1,0-4Z" fill="#f90"/><rect x="70.2" y="135" width="4" height="4.01" rx="2" ry="2" fill="#fff"/></svg>