<svg id="Layer_1" data-name="Layer 1" xmlns="http://www.w3.org/2000/svg" viewBox="0 0 128 128"><defs><style>.cls-1{fill:#f90;}.cls-2{fill:#ffc266;}.cls-3{fill:#fff;}</style></defs><title>importexport_icon</title><path class="cls-1" d="M119,57.84l-3.31-13.26a2,2,0,0,0,1.59-2V40.48a8.43,8.43,0,0,0-8.42-8.42H93.8V27.66a4.15,4.15,0,0,0-4.14-4.14h-77a4.15,4.15,0,0,0-4.14,4.14V79.1H2a2,2,0,1,0,0,4H8.55v4.41a4.15,4.15,0,0,0,4.14,4.14H23.52s0,.09,0,.13a12.69,12.69,0,1,0,25.39,0s0-.09,0-.13H94.07s0,.09,0,.13a12.69,12.69,0,1,0,25.39,0s0-.09,0-.13H126a2,2,0,0,0,2-2V68.28A10.57,10.57,0,0,0,119,57.84Z"/><path class="cls-2" d="M89.79,87.65H48.2a12.69,12.69,0,0,0-24,0H12.69a.13.13,0,0,1-.13-.13V83.11h2.68a2,2,0,1,0,0-4H12.56V27.66a.13.13,0,0,1,.13-.13h77a.13.13,0,0,1,.13.13V72.55h0Z"/><path class="cls-2" d="M124,87v.66h-5.24a12.69,12.69,0,0,0-24,0h-1V76h0V61.73h23.65a6.56,6.56,0,0,1,6.23,4.54h-6.23a2,2,0,0,0-2,2v4.28a6.29,6.29,0,0,0,6.28,6.28H124V87Z"/><path class="cls-3" d="M124,74.82h-2.27a2.27,2.27,0,0,1-2.27-2.27V70.28H124Z"/><path class="cls-2" d="M93.8,36.08h15.1a4.41,4.41,0,0,1,4.41,4.41v.13H93.8Z"/><polygon class="cls-3" points="93.8 44.63 111.6 44.63 114.88 57.72 93.8 57.72 93.8 44.63"/><circle class="cls-1" cx="36.21" cy="91.79" r="8.68"/><circle class="cls-1" cx="106.76" cy="91.79" r="8.68"/><path class="cls-1" d="M37.93,62.82a6,6,0,0,1-4.24-1.76l-9.14-9.14a6,6,0,0,1,0-8.48l9.14-9.14A6,6,0,0,1,43,41.68h13a6,6,0,0,1,0,12H43a6,6,0,0,1-5.11,9.14Z"/><path class="cls-3" d="M56.07,45.68H33.61L39.34,40a2,2,0,0,0-2.83-2.83l-9.14,9.14a2,2,0,0,0,0,2.83l9.14,9.14a2,2,0,0,0,2.83-2.83l-5.73-5.73H56.07a2,2,0,0,0,0-4Z"/><path class="cls-1" d="M68.93,82.82a6,6,0,0,0,4.24-1.76l9.14-9.14a6,6,0,0,0,0-8.48L73.17,54.3a6,6,0,0,0-9.35,7.38h-13a6,6,0,0,0,0,12h13a6,6,0,0,0,5.11,9.14Z"/><path class="cls-3" d="M50.79,65.68H73.24L67.51,60a2,2,0,0,1,2.83-2.83l9.14,9.14a2,2,0,0,1,0,2.83l-9.14,9.14a2,2,0,0,1-2.83-2.83l5.73-5.73H50.79a2,2,0,0,1,0-4Z"/><rect class="cls-1" x="19.25" y="79.1" width="4.01" height="4.01" rx="2" ry="2"/></svg>