<svg xmlns="http://www.w3.org/2000/svg" viewBox="0 0 240 240"><defs><style>.a{fill:#f90;}.b{fill:#fff;}.c{fill:#ffc266;}</style></defs><title>cleanup</title><rect class="a" width="240" height="240"/><path class="b" d="M177.7,97.29H184V80.77h-8.36A24.8,24.8,0,0,0,151,58.06a23.65,23.65,0,0,0-19.72,10.38c-.31,0-.61-.06-.92-.06a14.45,14.45,0,0,0-13.1,8.39,26.81,26.81,0,0,0-52.86,4H56V97.29h6.25a41.1,41.1,0,0,0,11.16,26.14l5.3,50.37c.09,5.76,6.7,10.2,12.39,10.2H148.9c5.69,0,12.3-4.45,12.39-10.2l5.3-50.37A41.08,41.08,0,0,0,177.7,97.29Z"/><path class="a" d="M167.38,115.89l2-18.59h4.23A36.9,36.9,0,0,1,167.38,115.89Z"/><path class="c" d="M130.32,72.52a9.64,9.64,0,0,1,8.53,5.16l3.57-2.07a14.35,14.35,0,0,0-6.78-6.15A19.41,19.41,0,0,1,151,62.19a20.67,20.67,0,0,1,20.54,18.58h-51.3A10.34,10.34,0,0,1,130.32,72.52Z"/><path class="a" d="M179.87,84.9v8.26H105.55V91.1a6.2,6.2,0,0,1,6.19-6.19h68.13Z"/><path class="c" d="M91.1,60.13a22.73,22.73,0,0,1,22.6,20.65h-2A10.33,10.33,0,0,0,101.42,91.1v18.58a6.19,6.19,0,1,1-12.39,0V80.77H68.49A22.73,22.73,0,0,1,91.1,60.13Z"/><path class="a" d="M66.38,97.29h4.28l2,18.52A36.88,36.88,0,0,1,66.38,97.29Z"/><rect class="a" x="60.13" y="84.9" width="24.77" height="8.26"/><path class="a" d="M157.17,173.46v.21c0,3.19-4.65,6.19-8.26,6.19H91.1c-3.61,0-8.26-3-8.26-6.19l-4.84-46a41.07,41.07,0,0,0,23.42,8.73v4.23h37.16v-4.23A41,41,0,0,0,162,127.65Z"/><rect class="a" x="105.55" y="132.39" width="28.9" height="4.13"/><path class="a" d="M162.63,121.63a37,37,0,0,1-24,10.65v-4H101.42v4A37,37,0,0,1,77.36,121.6L74.81,97.29H84.9v12.39a10.32,10.32,0,1,0,20.65,0V97.29h59.64Z"/><path class="b" d="M173.68,153A10.32,10.32,0,1,0,184,163.36,10.33,10.33,0,0,0,173.68,153Z"/><circle class="c" cx="173.68" cy="163.35" r="6.19"/><rect class="b" x="89.03" y="171.61" width="4.13" height="4.13"/><rect class="b" x="97.29" y="171.61" width="4.13" height="4.13"/><rect class="b" x="146.84" y="171.61" width="4.13" height="4.13"/><circle class="b" cx="138.58" cy="153.03" r="6.19"/><circle class="c" cx="138.58" cy="153.03" r="2.06"/></svg>