<svg id="Layer_1" data-name="Layer 1" xmlns="http://www.w3.org/2000/svg" viewBox="0 0 128 128"><defs><style>.cls-1{fill:#f90;}.cls-2{fill:#fff;}.cls-3{fill:#ffc266;}</style></defs><title>cleanup_icon</title><path class="cls-1" d="M121.7,41.29H128V24.77h-8.36A24.8,24.8,0,0,0,95,2.06,23.65,23.65,0,0,0,75.24,12.45c-.31,0-.61-.06-.92-.06a14.45,14.45,0,0,0-13.1,8.39,26.81,26.81,0,0,0-52.86,4H0V41.29H6.25A41.1,41.1,0,0,0,17.41,67.43l5.3,50.37c.09,5.76,6.7,10.2,12.39,10.2H92.9c5.69,0,12.3-4.45,12.39-10.2l5.3-50.37A41.08,41.08,0,0,0,121.7,41.29Z"/><path class="cls-2" d="M111.38,59.89l2-18.59h4.23A36.9,36.9,0,0,1,111.38,59.89Z"/><path class="cls-3" d="M74.32,16.52a9.64,9.64,0,0,1,8.53,5.16l3.57-2.07a14.35,14.35,0,0,0-6.78-6.15A19.41,19.41,0,0,1,95,6.19a20.67,20.67,0,0,1,20.54,18.58H64.21A10.34,10.34,0,0,1,74.32,16.52Z"/><path class="cls-2" d="M123.87,28.9v8.26H49.55V35.1a6.2,6.2,0,0,1,6.19-6.19h68.13Z"/><path class="cls-3" d="M35.1,4.13A22.73,22.73,0,0,1,57.7,24.77h-2A10.33,10.33,0,0,0,45.42,35.1V53.68a6.19,6.19,0,1,1-12.39,0V24.77H12.49A22.73,22.73,0,0,1,35.1,4.13Z"/><path class="cls-2" d="M10.38,41.29h4.28l2,18.52A36.88,36.88,0,0,1,10.38,41.29Z"/><rect class="cls-2" x="4.13" y="28.9" width="24.77" height="8.26"/><path class="cls-2" d="M101.17,117.46v.21c0,3.19-4.65,6.19-8.26,6.19H35.1c-3.61,0-8.26-3-8.26-6.19L22,71.69a41.07,41.07,0,0,0,23.42,8.73v4.23H82.58V80.41A41,41,0,0,0,106,71.65Z"/><rect class="cls-2" x="49.55" y="76.39" width="28.9" height="4.13"/><path class="cls-2" d="M106.63,65.63a37,37,0,0,1-24,10.65v-4H45.42v4A37,37,0,0,1,21.36,65.6L18.81,41.29H28.9V53.68a10.32,10.32,0,0,0,20.65,0V41.29h59.64Z"/><path class="cls-1" d="M117.68,97A10.32,10.32,0,1,0,128,107.36,10.33,10.33,0,0,0,117.68,97Z"/><circle class="cls-3" cx="117.68" cy="107.35" r="6.19"/><rect class="cls-2" x="33.03" y="115.61" width="4.13" height="4.13"/><rect class="cls-2" x="41.29" y="115.61" width="4.13" height="4.13"/><rect class="cls-2" x="90.84" y="115.61" width="4.13" height="4.13"/><circle class="cls-1" cx="82.58" cy="97.03" r="6.19"/><circle class="cls-3" cx="82.58" cy="97.03" r="2.06"/></svg>