<svg xmlns="http://www.w3.org/2000/svg" viewBox="0 0 240 240"><defs><style>.a{fill:#f90;}.b{fill:#fff;}.c{fill:#ffc266;}</style></defs><title>powertools</title><rect class="a" y="-0.09" width="240" height="240"/><path class="b" d="M176.48,73.21l-.45-.09c0-.34,0-.68,0-1a14.31,14.31,0,0,0-.13-1.92l.37-.07a2,2,0,1,0-.77-4l-.72.14a13.94,13.94,0,0,0-1.63-2.71l.51-.51a2,2,0,0,0-2.87-2.86l-.55.55a13.92,13.92,0,0,0-2.44-1.42l.14-.72a2,2,0,1,0-4-.77l-.07.37A14.31,14.31,0,0,0,162,58c-.35,0-.69,0-1,0l-.09-.45a2,2,0,0,0-4,.77L157,59a13.87,13.87,0,0,0-2.63,1.33l-.18-.27a2,2,0,0,0-3.38,2.24l.46.69-2,2-.42-.42A2,2,0,1,0,146,67.35l.42.42-1.89,1.89-.42-.42a2,2,0,0,0-2.87,2.87l.42.42-1.89,1.89-.42-.42a2,2,0,0,0-2.87,2.86l.42.42-1.89,1.89-.42-.42a2,2,0,1,0-2.86,2.87l.42.42-1.89,1.89-.42-.42A2,2,0,1,0,127,86.37l.42.42-1.89,1.89-.42-.42a2,2,0,0,0-2.87,2.87l.42.42-1.89,1.89-.42-.42a2,2,0,0,0-2.87,2.87l.42.42-1.89,1.89-.42-.42a2,2,0,0,0-2.87,2.87l.42.42-1.89,1.89-6.14-6.14a11.75,11.75,0,0,0-16.62,0l-1.39,1.39L75.61,86.64a2,2,0,0,0-2.86,2.86L84.3,101.06,66.15,119.21a11.76,11.76,0,0,0-.69,15.86l-3.54,29.47a7.71,7.71,0,0,0,2,5.81l11.48,11.48a7.44,7.44,0,0,0,10.51,0L129.75,138a11.77,11.77,0,0,0,1.31-15.06l2-2,.42.42a2,2,0,0,0,2.87-2.86l-.42-.42,1.89-1.89.42.42a2,2,0,1,0,2.86-2.87l-.42-.42,1.89-1.89.42.42a2,2,0,0,0,2.87-2.86l-.42-.42,1.89-1.89.42.42a2,2,0,0,0,2.87-2.86l-.42-.42,1.89-1.89.42.42a2,2,0,0,0,2.87-2.86l-.42-.42,1.89-1.89.42.42a2,2,0,0,0,2.86-2.87l-.42-.42,1.89-1.89.42.42A2,2,0,1,0,164.88,90l-.42-.42,1.89-1.89.42.42a2,2,0,1,0,2.87-2.86l-.42-.42,2-2,.69.46a2,2,0,1,0,2.24-3.38l-.28-.18a13.87,13.87,0,0,0,1.33-2.63l.54.11a2,2,0,1,0,.77-4Z"/><path class="c" d="M128.32,119.95,114.17,105.8,154.95,65a10,10,0,0,1,14.15,14.15Z"/><path class="a" d="M99,163,76.3,140.24a2,2,0,0,0-3.44,1.19L70.15,164a2,2,0,0,0,.58,1.67l8.51,8.51a2,2,0,0,0,2.86,0L93.3,163l2.87,2.87L83.05,179a3.38,3.38,0,0,1-4.78,0L66.79,167.48a3.72,3.72,0,0,1-.85-2.46l3.25-27a2,2,0,0,0,1.38-3.46L69,133a7.71,7.71,0,0,1,0-10.89l18.15-18.15,27.63,27.63a2,2,0,0,0,2.86-2.86L90,101.06l1.39-1.39a7.7,7.7,0,0,1,10.89,0l24.58,24.58a7.71,7.71,0,0,1,0,10.89Z"/><polygon class="a" points="90.44 160.12 80.66 169.89 74.29 163.51 76.38 146.06 90.44 160.12"/><path class="b" d="M94.16,147.79a2,2,0,1,0-2.86,2.86L97,156.39a2,2,0,1,0,2.86-2.86Z"/><path class="b" d="M99.32,142.64a2,2,0,1,0-2.86,2.86l5.73,5.73a2,2,0,0,0,2.86-2.86Z"/><path class="b" d="M104.48,137.48a2,2,0,1,0-2.86,2.86l5.73,5.73a2,2,0,0,0,2.86-2.86Z"/></svg>