<svg id="Layer_1" data-name="Layer 1" xmlns="http://www.w3.org/2000/svg" viewBox="0 0 128 128"><defs><style>.cls-1{fill:#f90;}.cls-2{fill:#ffc266;}.cls-3{fill:#fff;}</style></defs><title>powertools_icon</title><path class="cls-1" d="M120.48,17.21l-.45-.09c0-.34,0-.68,0-1a14.31,14.31,0,0,0-.13-1.92l.37-.07a2,2,0,1,0-.77-4l-.72.14a13.94,13.94,0,0,0-1.63-2.71L117.7,7a2,2,0,0,0-2.87-2.86l-.55.55a13.92,13.92,0,0,0-2.44-1.42l.14-.72a2,2,0,1,0-4-.77l-.07.37A14.31,14.31,0,0,0,106,2c-.35,0-.69,0-1,0l-.09-.45a2,2,0,0,0-4,.77L101,3A13.87,13.87,0,0,0,98.4,4.29L98.22,4a2,2,0,0,0-3.38,2.24l.46.69-2,2-.42-.42A2,2,0,0,0,90,11.35l.42.42-1.89,1.89-.42-.42a2,2,0,0,0-2.87,2.87l.42.42-1.89,1.89L83.41,18a2,2,0,1,0-2.87,2.86l.42.42-1.89,1.89-.42-.42a2,2,0,1,0-2.86,2.87l.42.42-1.89,1.89-.42-.42A2,2,0,0,0,71,30.37l.42.42-1.89,1.89-.42-.42a2,2,0,0,0-2.87,2.87l.42.42-1.89,1.89L64.39,37a2,2,0,0,0-2.87,2.87l.42.42-1.89,1.89-.42-.42a2,2,0,0,0-2.87,2.87l.42.42-1.89,1.89L49.17,40.8a11.75,11.75,0,0,0-16.62,0l-1.39,1.39L19.61,30.64a2,2,0,0,0-2.86,2.86L28.3,45.06,10.15,63.21a11.76,11.76,0,0,0-.69,15.86L5.92,108.54a7.71,7.71,0,0,0,2,5.81l11.48,11.48a7.44,7.44,0,0,0,10.51,0L73.75,82a11.77,11.77,0,0,0,1.31-15.06l2-2,.42.42a2,2,0,1,0,2.87-2.86l-.42-.42,1.89-1.89.42.42a2,2,0,1,0,2.86-2.87l-.42-.42,1.89-1.89.42.42A2,2,0,0,0,89.86,53l-.42-.42,1.89-1.89.42.42a2,2,0,0,0,2.87-2.86l-.42-.42,1.89-1.89.42.42a2,2,0,1,0,2.87-2.86L98.95,43l1.89-1.89.42.42a2,2,0,0,0,2.86-2.87l-.42-.42,1.89-1.89.42.42A2,2,0,1,0,108.88,34l-.42-.42,1.89-1.89.42.42a2,2,0,0,0,2.87-2.86l-.42-.42,2-2,.69.46a2,2,0,1,0,2.24-3.38l-.28-.18a13.87,13.87,0,0,0,1.33-2.63l.54.11a2,2,0,1,0,.77-4Z"/><path class="cls-2" d="M72.32,63.95,58.17,49.8,98.95,9a10,10,0,0,1,14.15,14.15Z"/><path class="cls-3" d="M43,107,20.3,84.24a2,2,0,0,0-3.44,1.19L14.15,108a2,2,0,0,0,.58,1.67l8.51,8.51a2,2,0,0,0,2.86,0L37.3,107l2.87,2.87L27.05,123a3.38,3.38,0,0,1-4.78,0L10.79,111.48A3.72,3.72,0,0,1,9.94,109l3.25-27a2,2,0,0,0,1.38-3.46L13,77a7.71,7.71,0,0,1,0-10.89L31.16,47.92,58.79,75.55a2,2,0,0,0,2.86-2.86L34,45.06l1.39-1.39a7.7,7.7,0,0,1,10.89,0L70.88,68.24a7.71,7.71,0,0,1,0,10.89Z"/><polygon class="cls-3" points="34.44 104.11 24.66 113.89 18.29 107.51 20.38 90.06 34.44 104.11"/><path class="cls-1" d="M38.16,91.79a2,2,0,0,0-2.86,2.86L41,100.39a2,2,0,1,0,2.86-2.86Z"/><path class="cls-1" d="M43.32,86.64a2,2,0,0,0-2.86,2.86l5.73,5.73a2,2,0,0,0,2.86-2.86Z"/><path class="cls-1" d="M48.48,81.48a2,2,0,1,0-2.86,2.86l5.73,5.73a2,2,0,0,0,2.86-2.86Z"/></svg>