<svg xmlns="http://www.w3.org/2000/svg" viewBox="0 0 240 240"><defs><style>.a{fill:#f90;}.b{fill:#f2f2f2;}.c{fill:#ffc266;}</style></defs><title>utils</title><rect class="a" width="240" height="240"/><rect class="b" x="56" y="69" width="128" height="101" rx="10.92" ry="10.92"/><path class="a" d="M180,159.27a6.77,6.77,0,0,1-6.79,6.73H66.77A6.77,6.77,0,0,1,60,159.23V91H180v68.27Z"/><path class="c" d="M180,87H60V79.77A6.77,6.77,0,0,1,66.77,73H173.23A6.77,6.77,0,0,1,180,79.77Z"/><path class="b" d="M71.3,78h-2a2.11,2.11,0,0,0-2.13,1.71,2,2,0,0,0,2,2.29h2a2.11,2.11,0,0,0,2.13-1.71A2,2,0,0,0,71.3,78Z"/><path class="b" d="M80.15,78h-2A2.11,2.11,0,0,0,76,79.71,2,2,0,0,0,78,82h2a2.11,2.11,0,0,0,2.13-1.71A2,2,0,0,0,80.15,78Z"/><path class="b" d="M89,78H87a2.11,2.11,0,0,0-2.13,1.71,2,2,0,0,0,2,2.29h2A2.11,2.11,0,0,0,91,80.29,2,2,0,0,0,89,78Z"/><path class="b" d="M89.58,128.85l14.29-16.33a2.07,2.07,0,1,0-3.12-2.73L85.26,127.48a2.07,2.07,0,0,0,0,2.73l15.48,17.69a2.07,2.07,0,1,0,3.12-2.73Z"/><path class="b" d="M154.74,127.48l-15.48-17.69a2.07,2.07,0,0,0-3.12,2.73l14.29,16.33-14.29,16.33a2.07,2.07,0,0,0,3.12,2.73l15.48-17.69A2.07,2.07,0,0,0,154.74,127.48Z"/><path class="b" d="M129.65,107a2.07,2.07,0,0,0-2.72,1.11l-17.69,42a2.07,2.07,0,1,0,3.82,1.61l17.69-42A2.07,2.07,0,0,0,129.65,107Z"/></svg>