<svg id="Layer_1" data-name="Layer 1" xmlns="http://www.w3.org/2000/svg" viewBox="0 0 128 128"><defs><style>.cls-1{fill:#f90;}.cls-2{fill:#fff;}.cls-3{fill:#ffc266;}</style></defs><title>utils_icon</title><rect class="cls-1" y="13" width="128" height="101" rx="10.92" ry="10.92"/><path class="cls-2" d="M124,103.27a6.77,6.77,0,0,1-6.79,6.73H10.77A6.77,6.77,0,0,1,4,103.23V35H124v68.27Z"/><path class="cls-3" d="M124,31H4V23.77A6.77,6.77,0,0,1,10.77,17H117.23A6.77,6.77,0,0,1,124,23.77Z"/><path class="cls-1" d="M15.3,22h-2a2.11,2.11,0,0,0-2.13,1.71,2,2,0,0,0,2,2.29h2a2.11,2.11,0,0,0,2.13-1.71A2,2,0,0,0,15.3,22Z"/><path class="cls-1" d="M24.15,22h-2A2.11,2.11,0,0,0,20,23.71,2,2,0,0,0,22,26h2a2.11,2.11,0,0,0,2.13-1.71A2,2,0,0,0,24.15,22Z"/><path class="cls-1" d="M33,22H31a2.11,2.11,0,0,0-2.13,1.71,2,2,0,0,0,2,2.29h2A2.11,2.11,0,0,0,35,24.29,2,2,0,0,0,33,22Z"/><path class="cls-1" d="M33.58,72.85,47.87,56.52a2.07,2.07,0,1,0-3.12-2.73L29.26,71.48a2.07,2.07,0,0,0,0,2.73L44.75,91.91a2.07,2.07,0,0,0,3.12-2.73Z"/><path class="cls-1" d="M98.74,71.48,83.25,53.79a2.07,2.07,0,1,0-3.12,2.73L94.42,72.85,80.13,89.17a2.07,2.07,0,0,0,3.12,2.73L98.74,74.21A2.07,2.07,0,0,0,98.74,71.48Z"/><path class="cls-1" d="M73.65,51a2.07,2.07,0,0,0-2.72,1.11l-17.69,42a2.07,2.07,0,1,0,3.82,1.61l17.69-42A2.07,2.07,0,0,0,73.65,51Z"/></svg>