<svg id="Layer_1" data-name="Layer 1" xmlns="http://www.w3.org/2000/svg" viewBox="0 0 240 240"><defs><style>.cls-1{fill:#f90;}.cls-2{fill:#ffc266;}.cls-3{fill:#fff;}</style></defs><title>share_banner</title><rect class="cls-1" width="240" height="240"/><path class="cls-2" d="M72.41,126.61H75v-29H72.41a14.5,14.5,0,0,0-14.5,14.5h0A14.5,14.5,0,0,0,72.41,126.61Z"/><path class="cls-2" d="M112,135.88s31-1.78,57,21.22V66.44c-26,23-57,21.22-57,21.22Z"/><path class="cls-1" d="M175.5,164.35h0A6.41,6.41,0,0,1,169,158V65.49a6.41,6.41,0,0,1,6.5-6.31h0a6.41,6.41,0,0,1,6.5,6.31V158A6.41,6.41,0,0,1,175.5,164.35Z"/><path class="cls-1" d="M105.75,135.61H112v-48H76v48h6.51l6.21,33.14a13.31,13.31,0,0,0,13.08,10.86H114Z"/><path class="cls-3" d="M143.89,89.41a110,110,0,0,1-21.18,5.1,2.55,2.55,0,0,0,.35,5.08l.35,0a115.09,115.09,0,0,0,22.16-5.33,2.55,2.55,0,1,0-1.68-4.81Z"/><path class="cls-3" d="M157.82,83.33c-1.77.94-3.61,1.85-5.47,2.69a2.55,2.55,0,1,0,2.11,4.64c2-.89,3.89-1.84,5.75-2.83a2.55,2.55,0,1,0-2.4-4.5Z"/><path class="cls-3" d="M176.56,57.5a8.84,8.84,0,0,0-10.24,8.39,83.7,83.7,0,0,1-36.09,17.78,75,75,0,0,1-18.23,2H75.55A2.55,2.55,0,0,0,73,88.16v6.45h-.13a16.72,16.72,0,0,0-16,11.45A17.06,17.06,0,0,0,73,128.61h0v7.45a2.55,2.55,0,0,0,2.55,2.55h4.39l5.82,31.06a15.86,15.86,0,0,0,15.59,12.94h12.19a2.54,2.54,0,0,0,2.5-3l-7.68-41H112a75,75,0,0,1,18.23,2,83.7,83.7,0,0,1,36.09,17.77,8.84,8.84,0,0,0,10.24,8.39,9,9,0,0,0,7.44-9V66.52A9,9,0,0,0,176.56,57.5ZM73,123.61a11.54,11.54,0,0,1-10.91-15.23A11.39,11.39,0,0,1,73,100.61h0v23Zm5-33h31v43H78Zm26.21,54H97.72A2.62,2.62,0,0,0,95,146.89a2.5,2.5,0,0,0,2.49,2.72h7.6l1.12,6H99.76a2.62,2.62,0,0,0-2.67,2.28,2.5,2.5,0,0,0,2.49,2.72h7.61l1.12,6h-6.27a2.62,2.62,0,0,0-2.67,2.28,2.5,2.5,0,0,0,2.49,2.72h7.4l1.12,6h-9.18a10.76,10.76,0,0,1-10.57-8.77L85,138.61h18.1ZM114,133.34V90.19a85.8,85.8,0,0,0,16.78-2.07A89.31,89.31,0,0,0,166,71.78v80a89.31,89.31,0,0,0-35.22-16.34A85.76,85.76,0,0,0,114,133.34Zm57-67.85a4,4,0,0,1,5.74-3.41A3.78,3.78,0,0,1,179,65.62v92.31a3.78,3.78,0,0,1-2.26,3.54A4,4,0,0,1,171,158V65.49Z"/></svg>