<svg id="Layer_1" data-name="Layer 1" xmlns="http://www.w3.org/2000/svg" viewBox="0 0 128 128"><defs><style>.cls-1{fill:#fff;}.cls-2{fill:#ffc266;}.cls-3{fill:#f90;}</style></defs><title>share_icon</title><path class="cls-1" d="M16.41,71H19V42H16.41A14.5,14.5,0,0,0,1.91,56.5h0A14.5,14.5,0,0,0,16.41,71Z"/><path class="cls-1" d="M56,80.26s31-1.78,57,21.22V10.83C87,33.83,56,32,56,32Z"/><path class="cls-2" d="M119.5,108.74h0a6.41,6.41,0,0,1-6.5-6.31V9.88a6.41,6.41,0,0,1,6.5-6.31h0A6.41,6.41,0,0,1,126,9.88v92.55A6.41,6.41,0,0,1,119.5,108.74Z"/><path class="cls-2" d="M49.75,80H56V32H20V80h6.51l6.21,33.14A13.31,13.31,0,0,0,45.8,124H58Z"/><path class="cls-3" d="M87.89,33.8a110,110,0,0,1-21.18,5.1A2.55,2.55,0,0,0,67.06,44l.35,0a115.09,115.09,0,0,0,22.16-5.33,2.55,2.55,0,1,0-1.68-4.81Z"/><path class="cls-3" d="M101.81,27.72c-1.77.94-3.61,1.85-5.47,2.69a2.55,2.55,0,1,0,2.11,4.64c2-.89,3.89-1.84,5.75-2.83a2.55,2.55,0,1,0-2.4-4.5Z"/><path class="cls-3" d="M120.56,1.88a8.84,8.84,0,0,0-10.24,8.39A83.7,83.7,0,0,1,74.23,28,75,75,0,0,1,56,30H19.55A2.55,2.55,0,0,0,17,32.55V39h-.13a16.72,16.72,0,0,0-16,11.45A17.06,17.06,0,0,0,17,73h0v7.45A2.55,2.55,0,0,0,19.55,83h4.39l5.82,31.06A15.86,15.86,0,0,0,45.35,127H57.53a2.54,2.54,0,0,0,2.5-3L52.35,83H56a75,75,0,0,1,18.23,2,83.7,83.7,0,0,1,36.09,17.77,8.84,8.84,0,0,0,10.24,8.39,9,9,0,0,0,7.44-9V10.91A9,9,0,0,0,120.56,1.88ZM17,68A11.54,11.54,0,0,1,6.09,52.77,11.39,11.39,0,0,1,17,45h0V68Zm5-33H53V78H22ZM48.21,89H41.71A2.62,2.62,0,0,0,39,91.28,2.5,2.5,0,0,0,41.54,94h7.6l1.12,6H43.75a2.62,2.62,0,0,0-2.67,2.28A2.5,2.5,0,0,0,43.58,105h7.61l1.12,6H46a2.62,2.62,0,0,0-2.67,2.28A2.5,2.5,0,0,0,45.87,116h7.4l1.12,6H45.21a10.76,10.76,0,0,1-10.57-8.77L29,83h18.1ZM58,77.73V34.58a85.8,85.8,0,0,0,16.78-2.07A89.31,89.31,0,0,0,110,16.17v80A89.31,89.31,0,0,0,74.78,79.81,85.76,85.76,0,0,0,58,77.73ZM115,9.88a4,4,0,0,1,5.74-3.41A3.78,3.78,0,0,1,123,10v92.31a3.78,3.78,0,0,1-2.26,3.54,4,4,0,0,1-5.74-3.41V9.88Z"/></svg>