<svg version="1.1" id="Layer_1" xmlns="http://www.w3.org/2000/svg" xmlns:xlink="http://www.w3.org/1999/xlink" x="0px" y="0px"
	 width="16px" height="16px" viewBox="13.03 8 16 16" enable-background="new 13.03 8 16 16" xml:space="preserve">
<g>
	<path fill="#FFFFFF" d="M19.209,16.364c-0.034-0.012-0.07-0.014-0.102-0.028c2.758-2.429,9.539-8.321,9.557-8.333
		c0.108-0.091,0.343,1.372,0.357,1.56c0.176,3.221-2.281,5.07-4.734,6.59c-2.44,1.512-2.002,0.955-3.335,2.123
		C20.619,17.428,19.897,16.639,19.209,16.364z"/>
	<path fill="#FFFFFF" d="M13.742,20.904c0.754-0.678,4.665-4.063,4.665-4.063c0.057-0.067,0.146-0.095,0.245-0.113
		c0.146,0.011,0.283,0.008,0.451,0.078c0.612,0.242,1.288,0.995,1.421,1.875c0.002,0.056,0.015,0.105,0.012,0.168
		c-0.119,0.863-0.952,0.213-0.952,0.213s-0.408-0.208-0.938,0.633c-0.538,0.84-1.321,1.404-2.173,1.813c0,0-0.502,0.274-0.66,0.417
		c-0.161,0.143-0.321,0.323-0.274,0.932c0.042,0.607-0.127,0.938-0.437,1.111c-0.312,0.172-1.424-0.384-1.841-1.048
		C12.842,22.251,12.99,21.583,13.742,20.904z M18.048,18.038c-0.012,0.332,0.243,0.618,0.575,0.635
		c0.332,0.018,0.613-0.24,0.635-0.572c0.018-0.334-0.24-0.617-0.572-0.635C18.353,17.448,18.067,17.703,18.048,18.038z
		 M16.029,19.859c-0.012,0.332,0.243,0.619,0.576,0.636c0.331,0.018,0.612-0.237,0.634-0.573c0.018-0.335-0.241-0.618-0.572-0.635
		C16.333,19.27,16.046,19.524,16.029,19.859z M13.751,21.91c-0.02,0.341,0.24,0.625,0.57,0.642c0.338,0.018,0.625-0.238,0.64-0.576
		c0.021-0.338-0.238-0.622-0.571-0.64C14.053,21.32,13.766,21.575,13.751,21.91z"/>
</g>
</svg>
