<svg id="Layer_1" data-name="Layer 1" xmlns="http://www.w3.org/2000/svg" viewBox="0 0 128 128"><defs><style>.cls-1{fill:#f90;}.cls-2{fill:#ffc266;}.cls-3{fill:#fff;}</style></defs><title>maintenance_icon</title><path class="cls-1" d="M114.56,115h-9.79L75.73,3.34A4.46,4.46,0,0,0,71.42,0H56.58a4.46,4.46,0,0,0-4.31,3.34L23.23,115H13.44A4.44,4.44,0,0,0,9,119.44v4.12A4.44,4.44,0,0,0,13.44,128H114.56a4.44,4.44,0,0,0,4.44-4.44v-4.12A4.44,4.44,0,0,0,114.56,115Z"/><path class="cls-2" d="M78.84,32,71.59,4.11,71.45,4H56.55l-.14.11L49.16,32Z"/><polygon class="cls-3" points="79.09 37 48.91 37 46.57 46 81.43 46 79.09 37"/><polygon class="cls-2" points="90.85 78 83.57 50 44.43 50 37.15 78 90.85 78"/><polygon class="cls-3" points="37.57 82 35.23 91 92.77 91 90.43 82 37.57 82"/><polygon class="cls-2" points="100.92 115 95.98 96 32.02 96 27.08 115 100.92 115"/><path class="cls-2" d="M113.86,119H13.14a.14.14,0,0,0-.14.14v4.71a.14.14,0,0,0,.14.14H113.86a.15.15,0,0,0,.14-.15h0v-4.71A.14.14,0,0,0,113.86,119Z"/></svg>